<svg width="76" height="76" viewBox="0 0 76 76" fill="none" xmlns="http://www.w3.org/2000/svg">
<g filter="url(#filter0_d_151_602)">
<circle cx="38" cy="36" r="30" fill="#E4FFEA"/>
</g>
<path d="M37.9997 45.9168C43.4765 45.9168 47.9163 41.477 47.9163 36.0002C47.9163 30.5233 43.4765 26.0835 37.9997 26.0835C32.5228 26.0835 28.083 30.5233 28.083 36.0002C28.083 41.477 32.5228 45.9168 37.9997 45.9168Z" stroke="#01BC1F" stroke-opacity="0.84" stroke-width="2"/>
<path d="M28.7915 39.5417C29.8604 39.9837 31.6248 40.2501 32.5166 39.2102C33.4077 38.1697 32.613 36.5327 33.6004 35.9774C34.6827 35.3682 35.464 37.4394 37.4976 37.0739C39.5313 36.7084 40.8332 33.8751 40.8332 32.4584C40.8332 31.0417 39.6184 31.0417 39.5313 29.6633C39.4165 27.8542 40.8332 26.7917 40.8332 26.7917M40.8332 45.2084C40.0639 44.5645 39.4165 44.1459 39.4165 43.0834C39.4165 42.0209 40.1248 42.3751 40.8332 41.6667C41.5415 40.9584 41.1873 39.5417 41.8957 39.1876C42.604 38.8334 44.8055 39.5814 46.4998 40.9584" stroke="#01BC1F" stroke-opacity="0.84" stroke-width="2" stroke-linecap="round"/>
<path d="M37.9997 23.2501C38.7821 23.2501 39.4163 22.6158 39.4163 21.8334C39.4163 21.051 38.7821 20.4167 37.9997 20.4167C37.2173 20.4167 36.583 21.051 36.583 21.8334C36.583 22.6158 37.2173 23.2501 37.9997 23.2501Z" fill="#01BC1F" fill-opacity="0.84"/>
<path d="M37.9997 51.5833C38.7821 51.5833 39.4163 50.9491 39.4163 50.1667C39.4163 49.3843 38.7821 48.75 37.9997 48.75C37.2173 48.75 36.583 49.3843 36.583 50.1667C36.583 50.9491 37.2173 51.5833 37.9997 51.5833Z" fill="#01BC1F" fill-opacity="0.84"/>
<path d="M52.1667 37.4168C52.9491 37.4168 53.5833 36.7826 53.5833 36.0002C53.5833 35.2178 52.9491 34.5835 52.1667 34.5835C51.3843 34.5835 50.75 35.2178 50.75 36.0002C50.75 36.7826 51.3843 37.4168 52.1667 37.4168Z" fill="#01BC1F" fill-opacity="0.84"/>
<path d="M47.9167 27.5001C48.6991 27.5001 49.3333 26.8658 49.3333 26.0834C49.3333 25.301 48.6991 24.6667 47.9167 24.6667C47.1343 24.6667 46.5 25.301 46.5 26.0834C46.5 26.8658 47.1343 27.5001 47.9167 27.5001Z" fill="#01BC1F" fill-opacity="0.84"/>
<path d="M28.0832 47.3333C28.8656 47.3333 29.4998 46.6991 29.4998 45.9167C29.4998 45.1343 28.8656 44.5 28.0832 44.5C27.3008 44.5 26.6665 45.1343 26.6665 45.9167C26.6665 46.6991 27.3008 47.3333 28.0832 47.3333Z" fill="#01BC1F" fill-opacity="0.84"/>
<path d="M23.8332 37.4168C24.6156 37.4168 25.2498 36.7826 25.2498 36.0002C25.2498 35.2178 24.6156 34.5835 23.8332 34.5835C23.0508 34.5835 22.4165 35.2178 22.4165 36.0002C22.4165 36.7826 23.0508 37.4168 23.8332 37.4168Z" fill="#01BC1F" fill-opacity="0.84"/>
<path d="M28.0832 27.5001C28.8656 27.5001 29.4998 26.8658 29.4998 26.0834C29.4998 25.301 28.8656 24.6667 28.0832 24.6667C27.3008 24.6667 26.6665 25.301 26.6665 26.0834C26.6665 26.8658 27.3008 27.5001 28.0832 27.5001Z" fill="#01BC1F" fill-opacity="0.84"/>
<path d="M47.9167 47.3333C48.6991 47.3333 49.3333 46.6991 49.3333 45.9167C49.3333 45.1343 48.6991 44.5 47.9167 44.5C47.1343 44.5 46.5 45.1343 46.5 45.9167C46.5 46.6991 47.1343 47.3333 47.9167 47.3333Z" fill="#01BC1F" fill-opacity="0.84"/>
<path d="M28.083 36.0002C28.083 38.7025 29.1639 41.1519 30.9163 42.9404M37.9997 45.9168C43.4765 45.9168 47.9163 41.477 47.9163 36.0002M37.9997 26.0835C40.702 26.0835 43.1514 27.1644 44.9399 28.9168" stroke="#01BC1F" stroke-opacity="0.84" stroke-width="2" stroke-linecap="round" stroke-linejoin="round"/>
<defs>
<filter id="filter0_d_151_602" x="0" y="0" width="76" height="76" filterUnits="userSpaceOnUse" color-interpolation-filters="sRGB">
<feFlood flood-opacity="0" result="BackgroundImageFix"/>
<feColorMatrix in="SourceAlpha" type="matrix" values="0 0 0 0 0 0 0 0 0 0 0 0 0 0 0 0 0 0 127 0" result="hardAlpha"/>
<feOffset dy="2"/>
<feGaussianBlur stdDeviation="4"/>
<feComposite in2="hardAlpha" operator="out"/>
<feColorMatrix type="matrix" values="0 0 0 0 0.00392157 0 0 0 0 0.737255 0 0 0 0 0.121569 0 0 0 0.1 0"/>
<feBlend mode="normal" in2="BackgroundImageFix" result="effect1_dropShadow_151_602"/>
<feBlend mode="normal" in="SourceGraphic" in2="effect1_dropShadow_151_602" result="shape"/>
</filter>
</defs>
</svg>
