<svg width="18" height="70" viewBox="0 0 18 70" fill="none" xmlns="http://www.w3.org/2000/svg">
<path d="M7.39226 68.2837L8.17578 69.5628L10.734 67.9958L9.95046 66.7167L7.39226 68.2837ZM7.85829 62.9384L7.19102 61.595L4.5042 62.9296L5.17148 64.273L7.85829 62.9384ZM1.87895 55.7467L2.28596 57.1905L5.17341 56.3764L4.76639 54.9327L1.87895 55.7467ZM3.2181 46.4803L3.08459 44.9863L0.0964947 45.2533L0.230005 46.7474L3.2181 46.4803ZM0.208675 37.6199L0.0871151 39.115L3.07725 39.3581L3.19881 37.863L0.208675 37.6199ZM4.55347 29.312L4.89421 27.8513L1.97264 27.1698L1.6319 28.6306L4.55347 29.312ZM4.25978 19.9514L3.73741 21.3575L6.54962 22.4022L7.07199 20.9961L4.25978 19.9514ZM10.5639 13.0087L11.2388 11.6691L8.55958 10.3194L7.88472 11.659L10.5639 13.0087ZM12.3775 3.8115L11.5617 5.07028L14.0793 6.70182L14.895 5.44304L12.3775 3.8115ZM9.95046 66.7167C9.18009 65.459 8.48435 64.1989 7.85829 62.9384L5.17148 64.273C5.83711 65.6131 6.57579 66.9508 7.39226 68.2837L9.95046 66.7167ZM4.76639 54.9327C3.96478 52.0893 3.46677 49.2632 3.2181 46.4803L0.230005 46.7474C0.494322 49.7052 1.02426 52.7151 1.87895 55.7467L4.76639 54.9327ZM3.19881 37.863C3.43861 34.9138 3.91453 32.0512 4.55347 29.312L1.6319 28.6306C0.962952 31.4984 0.461706 34.5079 0.208675 37.6199L3.19881 37.863ZM7.07199 20.9961C8.16024 18.0667 9.36825 15.3822 10.5639 13.0087L7.88472 11.659C6.64591 14.118 5.39163 16.9047 4.25978 19.9514L7.07199 20.9961ZM14.895 5.44304C15.6345 4.3021 16.2537 3.41633 16.6853 2.8193C16.901 2.52083 17.0698 2.29466 17.1832 2.145C17.2398 2.07017 17.2826 2.01448 17.3105 1.97846C17.3245 1.96045 17.3347 1.94735 17.341 1.93924C17.3442 1.93518 17.3464 1.93237 17.3476 1.93082C17.3482 1.93004 17.3486 1.92958 17.3487 1.92943C17.3488 1.92935 17.3488 1.92935 17.3487 1.92944C17.3487 1.92948 17.3486 1.92954 17.3486 1.92962C17.3485 1.92966 17.3485 1.92974 17.3485 1.92976C17.3484 1.92984 17.3483 1.92992 16.1713 1.00006C14.9943 0.0701936 14.9942 0.0702888 14.9941 0.0703885C14.9941 0.0704287 14.994 0.0705336 14.994 0.0706135C14.9938 0.0707735 14.9937 0.0709532 14.9935 0.071153C14.9932 0.0715522 14.9928 0.072031 14.9924 0.0725892C14.9915 0.0737056 14.9904 0.0751394 14.989 0.07689C14.9863 0.080391 14.9825 0.085158 14.9778 0.091183C14.9684 0.103233 14.9551 0.120316 14.938 0.142365C14.9039 0.186462 14.8548 0.250432 14.7917 0.333748C14.6655 0.500371 14.4834 0.744429 14.254 1.06171C13.7954 1.69617 13.1471 2.62401 12.3775 3.8115L14.895 5.44304Z" fill="#01BC1F" fill-opacity="0.84"/>
</svg>
