<svg width="22" height="70" viewBox="0 0 22 70" fill="none" xmlns="http://www.w3.org/2000/svg">
<path d="M16.6662 1.98636L16.0113 0.63689L13.3124 1.94676L13.9673 3.29623L16.6662 1.98636ZM15.6807 7.26064L16.2137 8.66276L19.0179 7.59684L18.4849 6.19471L15.6807 7.26064ZM20.9295 15.0016L20.6654 13.525L17.7123 14.0534L17.9764 15.5299L20.9295 15.0016ZM18.6923 24.093L18.6794 25.593L21.6793 25.6189L21.6922 24.119L18.6923 24.093ZM20.8226 33.2049L21.0895 31.7288L18.1374 31.195L17.8705 32.6711L20.8226 33.2049ZM15.6876 41.049L15.2059 42.4696L18.0471 43.433L18.5287 42.0124L15.6876 41.049ZM15.0663 50.3937L15.7234 49.0453L13.0266 47.7311L12.3695 49.0795L15.0663 50.3937ZM8.11458 56.6879L7.31219 57.9552L9.84689 59.56L10.6493 58.2927L8.11458 56.6879ZM5.412 65.6642L6.34674 64.491L4.00046 62.6215L3.06572 63.7947L5.412 65.6642ZM13.9673 3.29623C14.6112 4.62304 15.1806 5.94512 15.6807 7.26064L18.4849 6.19471C17.9533 4.79603 17.3487 3.39258 16.6662 1.98636L13.9673 3.29623ZM17.9764 15.5299C18.4967 18.438 18.7165 21.2992 18.6923 24.093L21.6922 24.119C21.7179 21.1494 21.4842 18.1022 20.9295 15.0016L17.9764 15.5299ZM17.8705 32.6711C17.3439 35.5828 16.5909 38.3853 15.6876 41.049L18.5287 42.0124C19.4744 39.2236 20.267 36.2773 20.8226 33.2049L17.8705 32.6711ZM12.3695 49.0795C11.0005 51.8886 9.53623 54.4424 8.11458 56.6879L10.6493 58.2927C12.1222 55.9663 13.6425 53.3154 15.0663 50.3937L12.3695 49.0795ZM3.06572 63.7947C2.21848 64.858 1.51577 65.6791 1.02795 66.2312C0.784078 66.5071 0.594029 66.7158 0.466614 66.8536C0.40291 66.9226 0.354876 66.9738 0.323614 67.007C0.307982 67.0235 0.296544 67.0356 0.28944 67.043C0.285887 67.0467 0.283418 67.0493 0.282049 67.0507C0.281365 67.0515 0.280954 67.0519 0.280823 67.052C0.280756 67.0521 0.28076 67.0521 0.280832 67.052C0.280869 67.052 0.280922 67.0519 0.280994 67.0518C0.281029 67.0518 0.281096 67.0517 0.281114 67.0517C0.281184 67.0516 0.28126 67.0516 1.36189 68.0919C2.44252 69.1322 2.44261 69.1321 2.44269 69.132C2.44273 69.132 2.44282 69.1319 2.44289 69.1318C2.44304 69.1316 2.44319 69.1315 2.44337 69.1313C2.44372 69.1309 2.44415 69.1305 2.44464 69.13C2.44562 69.129 2.44688 69.1276 2.44843 69.126C2.45151 69.1228 2.45569 69.1184 2.46097 69.1129C2.47153 69.1018 2.48644 69.0861 2.50557 69.0658C2.54384 69.0253 2.599 68.9664 2.66993 68.8897C2.81178 68.7362 3.01678 68.511 3.27602 68.2177C3.79443 67.631 4.5302 66.7709 5.412 65.6642L3.06572 63.7947Z" fill="#01BC1F" fill-opacity="0.84"/>
</svg>
