<svg width="76" height="76" viewBox="0 0 76 76" fill="none" xmlns="http://www.w3.org/2000/svg">
<g filter="url(#filter0_d_151_624)">
<ellipse cx="37.6311" cy="36" rx="29.6311" ry="30" fill="#E4FFEA"/>
</g>
<path d="M52.7166 31.7567C52.5571 31.2618 52.2574 30.8252 51.8549 30.5012C51.4523 30.1772 50.9646 29.9802 50.4524 29.9345L42.9752 29.2798L40.0499 22.2221C39.8486 21.7421 39.5123 21.3328 39.0829 21.045C38.6534 20.7572 38.1498 20.6038 37.6348 20.6038C37.1198 20.6038 36.6162 20.7572 36.1868 21.045C35.7573 21.3328 35.4211 21.7421 35.2198 22.2221L32.2906 29.2798L24.8133 29.9345C24.2983 29.9777 23.8074 30.1739 23.4021 30.4985C22.9968 30.8232 22.6952 31.2617 22.5352 31.7593C22.3752 32.2568 22.3638 32.791 22.5026 33.295C22.6414 33.799 22.9241 34.2503 23.3153 34.5923L28.998 39.6126L27.2926 47.0819C27.1757 47.5906 27.2094 48.1228 27.3896 48.6121C27.5698 49.1014 27.8884 49.5261 28.3057 49.8331C28.723 50.1401 29.2204 50.3157 29.7357 50.338C30.251 50.3604 30.7614 50.2284 31.2031 49.9587L37.6309 46.0062L44.0587 49.9587C44.5003 50.228 45.0106 50.3596 45.5257 50.3371C46.0407 50.3145 46.5379 50.1388 46.9549 49.8319C47.3719 49.525 47.6904 49.1005 47.8706 48.6114C48.0507 48.1224 48.0846 47.5904 47.9678 47.0819L46.2625 39.6126L51.9452 34.5923C52.3353 34.2491 52.6167 33.7969 52.7539 33.2924C52.8911 32.788 52.8781 32.2537 52.7166 31.7567ZM43.9603 37.4172C43.6006 37.7341 43.3329 38.1442 43.1861 38.6036C43.0394 39.0629 43.019 39.5541 43.1273 40.0243L44.6215 46.5746L38.9886 43.1108C38.5795 42.8587 38.1098 42.7253 37.6309 42.7253C37.152 42.7253 36.6823 42.8587 36.2732 43.1108L30.6403 46.5746L32.1345 40.0243C32.2428 39.5541 32.2224 39.0629 32.0757 38.6036C31.9289 38.1442 31.6612 37.7341 31.3015 37.4172L26.3049 33.0038L32.8822 32.4274C33.3585 32.3861 33.8145 32.2133 34.2005 31.9279C34.5865 31.6424 34.8878 31.2552 35.0716 30.8084L37.6309 24.634L40.1902 30.8084C40.374 31.2552 40.6753 31.6424 41.0613 31.9279C41.4473 32.2133 41.9033 32.3861 42.3796 32.4274L48.9569 33.0038L43.9603 37.4172Z" fill="#01BC1F" fill-opacity="0.84"/>
<defs>
<filter id="filter0_d_151_624" x="0" y="0" width="75.2622" height="76" filterUnits="userSpaceOnUse" color-interpolation-filters="sRGB">
<feFlood flood-opacity="0" result="BackgroundImageFix"/>
<feColorMatrix in="SourceAlpha" type="matrix" values="0 0 0 0 0 0 0 0 0 0 0 0 0 0 0 0 0 0 127 0" result="hardAlpha"/>
<feOffset dy="2"/>
<feGaussianBlur stdDeviation="4"/>
<feComposite in2="hardAlpha" operator="out"/>
<feColorMatrix type="matrix" values="0 0 0 0 0.00392157 0 0 0 0 0.737255 0 0 0 0 0.121569 0 0 0 0.1 0"/>
<feBlend mode="normal" in2="BackgroundImageFix" result="effect1_dropShadow_151_624"/>
<feBlend mode="normal" in="SourceGraphic" in2="effect1_dropShadow_151_624" result="shape"/>
</filter>
</defs>
</svg>
