<svg width="50" height="29" viewBox="0 0 50 29" fill="none" xmlns="http://www.w3.org/2000/svg">
<rect width="50" height="29" rx="5" fill="white"/>
<g clip-path="url(#clip0_162_1722)">
<path d="M33.4652 11.3182C34.5691 11.3182 35.4222 11.6193 36.0746 12.2215C36.7269 12.8236 37.0279 13.6265 37.0279 14.6301V19.4474H35.6229V18.3435H35.5727C34.9706 19.2468 34.1175 19.6984 33.1139 19.6984C32.2608 19.6984 31.5081 19.4475 30.9059 18.9457C30.3539 18.4439 30.0026 17.7414 30.0026 16.9887C30.0026 16.1858 30.3038 15.5334 30.9059 15.0316C31.5081 14.5298 32.3612 14.3291 33.3648 14.3291C34.268 14.3291 34.9706 14.4797 35.5225 14.8309V14.4797C35.5225 14.0113 35.3477 13.543 34.9979 13.2378L34.9203 13.175C34.5189 12.8237 34.0171 12.623 33.4652 12.623C32.6121 12.623 31.9597 12.9743 31.5081 13.6768L30.2034 12.8737C31.0063 11.8199 32.0601 11.3182 33.4652 11.3182ZM26.3897 7.90596C27.2901 7.90596 28.1458 8.2193 28.8299 8.80361L28.9489 8.90949C29.6514 9.51169 30.0026 10.415 30.0026 11.3684C30.0026 12.3218 29.6514 13.1749 28.9489 13.8272C28.2463 14.4796 27.3933 14.8308 26.3897 14.8308L23.9811 14.7806V19.4475H22.4756V7.90588L26.3897 7.90596ZM33.6658 15.5334C33.0637 15.5334 32.5619 15.6839 32.1604 15.985C31.759 16.2359 31.5583 16.5871 31.5583 17.0387C31.5583 17.4402 31.759 17.7915 32.0601 17.9922C32.4113 18.2431 32.8128 18.3936 33.2143 18.3936C33.7762 18.3936 34.3383 18.1751 34.7779 17.7787L34.8702 17.6911C35.372 17.2395 35.6229 16.6875 35.6229 16.0853C35.1713 15.7341 34.5189 15.5333 33.6659 15.5333L33.6658 15.5334ZM26.4901 9.31098H23.9811V13.3255H26.4901C27.042 13.3255 27.594 13.1248 27.9453 12.7234C28.7481 11.9707 28.7481 10.7162 27.9955 9.96337L27.9453 9.91318C27.5438 9.51177 27.042 9.26086 26.49 9.31106L26.4901 9.31098ZM45.1572 11.5691L40.1893 22.9601H38.6839L40.5405 18.9958L37.2788 11.6193H38.8846L41.243 17.2896H41.2932L43.6015 11.6193H45.1572V11.5691Z" fill="#5F6368"/>
<path d="M18.0095 13.7771C18.0095 13.3255 17.9593 12.8738 17.9091 12.4222H11.6367V14.9815H15.1995C15.049 15.7843 14.5973 16.537 13.8948 16.9887V18.6446H16.0526C17.3071 17.4905 18.0096 15.7843 18.0096 13.7771L18.0095 13.7771Z" fill="#4285F4"/>
<path d="M11.6361 20.2503C13.4425 20.2503 14.9479 19.6481 16.0519 18.6445L13.8942 16.9886C13.292 17.39 12.5393 17.6409 11.6361 17.6409C9.9299 17.6409 8.42449 16.4868 7.92269 14.881H5.71484V16.5871C6.86896 18.8452 9.12708 20.2503 11.6361 20.2503Z" fill="#34A853"/>
<path d="M7.92296 14.8811C7.62194 14.0782 7.62194 13.1749 7.92296 12.3218V10.6157H5.71512C4.76163 12.4724 4.76163 14.6804 5.71512 16.5872L7.92296 14.8811Z" fill="#FBBC04"/>
<path d="M11.6368 9.61211C12.5902 9.61211 13.4934 9.9634 14.196 10.6157L16.1028 8.70889C14.8984 7.60489 13.2927 6.95258 11.6869 7.00269C9.17786 7.00269 6.86963 8.40779 5.76562 10.6659L7.97355 12.372C8.42515 10.7662 9.93057 9.61211 11.6368 9.61211Z" fill="#EA4335"/>
</g>
<defs>
<clipPath id="clip0_162_1722">
<rect width="40.1569" height="16" fill="white" transform="translate(5 7)"/>
</clipPath>
</defs>
</svg>
