<svg width="50" height="29" viewBox="0 0 50 29" fill="none" xmlns="http://www.w3.org/2000/svg">
<rect width="50" height="29" rx="5" fill="white"/>
<g clip-path="url(#clip0_162_1707)">
<path d="M17.4437 23.9056V22.6481C17.4437 22.1659 17.1502 21.8516 16.6471 21.8516C16.3957 21.8516 16.1232 21.9354 15.9345 22.2079C15.7878 21.9773 15.5783 21.8516 15.2639 21.8516C15.0542 21.8516 14.8447 21.9144 14.677 22.145V21.8935H14.2368V23.9056H14.677V22.7947C14.677 22.4385 14.8656 22.2707 15.1591 22.2707C15.4524 22.2707 15.5993 22.4594 15.5993 22.7947V23.9056H16.0394V22.7947C16.0394 22.4385 16.2489 22.2707 16.5214 22.2707C16.8149 22.2707 16.9616 22.4594 16.9616 22.7947V23.9056H17.4437ZM23.962 21.8935H23.2495V21.2857H22.8093V21.8935H22.4111V22.2917H22.8093V23.214C22.8093 23.6751 22.9979 23.9475 23.501 23.9475C23.6897 23.9475 23.8991 23.8847 24.046 23.8009L23.9201 23.4235C23.7944 23.5074 23.6477 23.5284 23.5429 23.5284C23.3333 23.5284 23.2495 23.4026 23.2495 23.193V22.2917H23.962V21.8935ZM27.6929 21.8515C27.4414 21.8515 27.2738 21.9773 27.1689 22.145V21.8935H26.7288V23.9056H27.1689V22.7738C27.1689 22.4385 27.3156 22.2498 27.5881 22.2498C27.6719 22.2498 27.7768 22.2708 27.8606 22.2918L27.9863 21.8726C27.9025 21.8516 27.7768 21.8516 27.6929 21.8516V21.8515ZM22.0548 22.0612C21.8451 21.9144 21.5517 21.8516 21.2373 21.8516C20.7343 21.8516 20.399 22.1031 20.399 22.5013C20.399 22.8367 20.6505 23.0253 21.0907 23.0882L21.3002 23.1092C21.5308 23.1511 21.6566 23.214 21.6566 23.3188C21.6566 23.4655 21.4889 23.5703 21.1954 23.5703C20.902 23.5703 20.6714 23.4655 20.5247 23.3607L20.3151 23.696C20.5457 23.8637 20.8601 23.9475 21.1744 23.9475C21.7613 23.9475 22.0967 23.6751 22.0967 23.2978C22.0967 22.9415 21.8242 22.7528 21.405 22.69L21.1954 22.669C21.0067 22.648 20.8601 22.6062 20.8601 22.4804C20.8601 22.3337 21.0067 22.2498 21.2373 22.2498C21.4889 22.2498 21.7404 22.3546 21.8661 22.4175L22.0548 22.0612ZM33.7503 21.8516C33.4987 21.8516 33.3311 21.9773 33.2262 22.145V21.8935H32.7861V23.9056H33.2262V22.7738C33.2262 22.4385 33.373 22.2498 33.6454 22.2498C33.7293 22.2498 33.8341 22.2708 33.918 22.2918L34.0437 21.8726C33.9599 21.8516 33.8341 21.8516 33.7503 21.8516ZM28.1331 22.8996C28.1331 23.5074 28.5522 23.9475 29.202 23.9475C29.4954 23.9475 29.705 23.8847 29.9146 23.717L29.705 23.3607C29.5374 23.4865 29.3697 23.5493 29.181 23.5493C28.8247 23.5493 28.5732 23.2978 28.5732 22.8996C28.5732 22.5223 28.8247 22.2707 29.181 22.2498C29.3697 22.2498 29.5374 22.3127 29.705 22.4385L29.9146 22.0822C29.705 21.9144 29.4954 21.8516 29.202 21.8516C28.5522 21.8516 28.1331 22.2918 28.1331 22.8996ZM32.1993 22.8996V21.8935H31.7591V22.145C31.6124 21.9564 31.4028 21.8516 31.1303 21.8516C30.5644 21.8516 30.1243 22.2918 30.1243 22.8996C30.1243 23.5074 30.5644 23.9475 31.1303 23.9475C31.4237 23.9475 31.6334 23.8428 31.7591 23.6541V23.9056H32.1993V22.8996ZM30.5853 22.8996C30.5853 22.5432 30.8159 22.2498 31.1931 22.2498C31.5494 22.2498 31.801 22.5223 31.801 22.8996C31.801 23.2559 31.5494 23.5493 31.1931 23.5493C30.8159 23.5283 30.5853 23.2559 30.5853 22.8996ZM25.3245 21.8516C24.7376 21.8516 24.3184 22.2707 24.3184 22.8996C24.3184 23.5284 24.7375 23.9475 25.3454 23.9475C25.6388 23.9475 25.9323 23.8637 26.1629 23.6751L25.9532 23.3607C25.7856 23.4865 25.576 23.5703 25.3664 23.5703C25.0939 23.5703 24.8214 23.4445 24.7585 23.0881H26.2467V22.9206C26.2677 22.2707 25.8905 21.8516 25.3245 21.8516ZM25.3245 22.2288C25.5969 22.2288 25.7857 22.3966 25.8275 22.711H24.7795C24.8214 22.4385 25.0101 22.2288 25.3245 22.2288ZM36.2444 22.8996V21.097H35.8043V22.145C35.6576 21.9564 35.448 21.8516 35.1755 21.8516C34.6096 21.8516 34.1694 22.2918 34.1694 22.8996C34.1694 23.5074 34.6096 23.9475 35.1755 23.9475C35.469 23.9475 35.6786 23.8428 35.8043 23.6541V23.9056H36.2444V22.8996ZM34.6306 22.8996C34.6306 22.5432 34.8611 22.2498 35.2384 22.2498C35.5947 22.2498 35.8462 22.5223 35.8462 22.8996C35.8462 23.2559 35.5947 23.5493 35.2384 23.5493C34.8611 23.5283 34.6306 23.2559 34.6306 22.8996ZM19.9169 22.8996V21.8935H19.4767V22.145C19.33 21.9564 19.1204 21.8516 18.8479 21.8516C18.282 21.8516 17.8419 22.2918 17.8419 22.8996C17.8419 23.5074 18.282 23.9475 18.8479 23.9475C19.1414 23.9475 19.351 23.8428 19.4767 23.6541V23.9056H19.9169V22.8996ZM18.282 22.8996C18.282 22.5432 18.5126 22.2498 18.8898 22.2498C19.2461 22.2498 19.4977 22.5223 19.4977 22.8996C19.4977 23.2559 19.2461 23.5493 18.8898 23.5493C18.5126 23.5283 18.282 23.2559 18.282 22.8996Z" fill="black"/>
<path d="M21.9077 6.61389H28.51V18.4771H21.9077V6.61389Z" fill="#FF5F00"/>
<path d="M22.3271 12.5455C22.3271 10.1352 23.4589 7.99723 25.1985 6.61385C23.92 5.60781 22.3062 5 20.5456 5C16.3745 5 13 8.37446 13 12.5455C13 16.7164 16.3745 20.091 20.5455 20.091C22.3061 20.091 23.9199 19.4832 25.1985 18.477C23.4589 17.1146 22.3271 14.9558 22.3271 12.5455Z" fill="#EB001B"/>
<path d="M37.4177 12.5455C37.4177 16.7164 34.0433 20.091 29.8722 20.091C28.1116 20.091 26.4978 19.4832 25.2192 18.477C26.9798 17.0937 28.0907 14.9558 28.0907 12.5455C28.0907 10.1352 26.9588 7.99723 25.2192 6.61385C26.4977 5.60781 28.1116 5 29.8722 5C34.0433 5 37.4177 8.39546 37.4177 12.5455Z" fill="#F79E1B"/>
</g>
<defs>
<clipPath id="clip0_162_1707">
<rect width="24.4422" height="19" fill="white" transform="translate(13 5)"/>
</clipPath>
</defs>
</svg>
