<svg width="50" height="29" viewBox="0 0 50 29" fill="none" xmlns="http://www.w3.org/2000/svg">
<rect width="50" height="29" rx="5" fill="white"/>
<g clip-path="url(#clip0_162_1714)">
<path d="M14.4718 9.70051C14.0566 9.22721 13.3059 9.02429 12.3457 9.02429H9.55863C9.46362 9.0243 9.37173 9.05819 9.29947 9.11989C9.22722 9.18158 9.17934 9.26703 9.16445 9.36087L8.00399 16.7208C7.98092 16.8659 8.0933 16.9974 8.2404 16.9974H9.96101L10.3931 14.2565L10.3797 14.3423C10.4105 14.1486 10.5762 14.0057 10.7724 14.0057H11.59C13.1963 14.0057 14.454 13.3533 14.8214 11.466C14.8323 11.4102 14.8417 11.3559 14.8499 11.3028C14.8035 11.2782 14.8035 11.2782 14.8499 11.3028C14.9593 10.6052 14.8491 10.1304 14.4718 9.70051Z" fill="#27346A"/>
<path d="M11.0515 11.0515C11.0985 11.0291 11.15 11.0175 11.2021 11.0175H13.3871C13.6458 11.0175 13.8871 11.0344 14.1077 11.0699C14.1694 11.0797 14.2308 11.0914 14.2917 11.1051C14.3782 11.1242 14.4636 11.1475 14.5477 11.175C14.6562 11.2112 14.7571 11.2534 14.8499 11.3028C14.9593 10.605 14.8491 10.1304 14.4718 9.70051C14.0563 9.22721 13.3059 9.02429 12.3457 9.02429H9.5584C9.36215 9.02429 9.19521 9.16716 9.16445 9.36087L8.00399 16.7205C7.98092 16.8659 8.0933 16.9972 8.24016 16.9972H9.96101L10.8575 11.312C10.8663 11.2561 10.8886 11.2032 10.9224 11.1578C10.9562 11.1124 11.0005 11.076 11.0515 11.0515Z" fill="#27346A"/>
<path d="M14.8217 11.4661C14.4543 13.3531 13.1966 14.0058 11.5903 14.0058H10.7725C10.5763 14.0058 10.4105 14.1487 10.38 14.3424L9.84246 17.7503C9.82237 17.8774 9.9206 17.9924 10.0491 17.9924H11.4995C11.5826 17.9924 11.663 17.9628 11.7261 17.9088C11.7893 17.8548 11.8311 17.7801 11.8441 17.698L11.8582 17.6241L12.1316 15.8916L12.1492 15.7958C12.1622 15.7138 12.204 15.639 12.2672 15.5851C12.3304 15.5311 12.4107 15.5014 12.4938 15.5014H12.7109C14.1159 15.5014 15.2161 14.9306 15.5376 13.2797C15.6718 12.5898 15.6023 12.0138 15.2473 11.6092C15.1397 11.4867 15.006 11.3855 14.8502 11.3029C14.8417 11.3562 14.8326 11.4103 14.8217 11.4661Z" fill="#2790C3"/>
<path d="M14.4653 11.1496C14.408 11.1328 14.3502 11.118 14.2919 11.1052C14.2309 11.0917 14.1695 11.0801 14.1078 11.0702C13.8871 11.0344 13.6459 11.0176 13.387 11.0176H11.2023C11.1501 11.0175 11.0986 11.0292 11.0517 11.0518C11.0006 11.0762 10.9562 11.1127 10.9224 11.158C10.8886 11.2034 10.8664 11.2564 10.8577 11.3123L10.3933 14.2566L10.3799 14.3424C10.4104 14.1487 10.5761 14.0058 10.7724 14.0058H11.5902C13.1965 14.0058 14.4541 13.3534 14.8215 11.4661C14.8325 11.4103 14.8416 11.3562 14.8501 11.3029C14.757 11.2538 14.6563 11.2113 14.5479 11.1753C14.5205 11.1663 14.493 11.1577 14.4653 11.1496" fill="#1F264F"/>
</g>
<path d="M16.304 17L17.2 11.36H19.608C20.2533 11.36 20.7227 11.5227 21.016 11.848C21.3093 12.168 21.4107 12.6027 21.32 13.152C21.272 13.472 21.1573 13.752 20.976 13.992C20.8 14.2267 20.5627 14.408 20.264 14.536C19.9707 14.664 19.6187 14.728 19.208 14.728H17.696L17.336 17H16.304ZM17.824 13.912H19.176C19.5227 13.912 19.7893 13.8427 19.976 13.704C20.168 13.5653 20.2853 13.3573 20.328 13.08C20.376 12.7813 20.3253 12.5547 20.176 12.4C20.0267 12.2453 19.7787 12.168 19.432 12.168H18.096L17.824 13.912ZM23.0526 17.08C22.6846 17.08 22.3726 16.9893 22.1166 16.808C21.8606 16.6267 21.6793 16.3707 21.5726 16.04C21.4713 15.704 21.4553 15.3093 21.5246 14.856C21.6313 14.2053 21.8713 13.7147 22.2446 13.384C22.6233 13.048 23.074 12.88 23.5966 12.88C23.9326 12.88 24.218 12.9627 24.4526 13.128C24.6873 13.288 24.8286 13.5067 24.8766 13.784L24.7966 13.808L25.0206 12.96H25.9806C25.938 13.1253 25.8953 13.2933 25.8526 13.464C25.8153 13.6347 25.7833 13.8027 25.7566 13.968L25.2766 17H24.2846L24.4206 16.144H24.5486C24.4153 16.432 24.2206 16.6613 23.9646 16.832C23.714 16.9973 23.41 17.08 23.0526 17.08ZM23.3806 16.312C23.69 16.312 23.954 16.2053 24.1726 15.992C24.3966 15.7733 24.5433 15.448 24.6126 15.016C24.6873 14.5467 24.642 14.2027 24.4766 13.984C24.3166 13.76 24.074 13.648 23.7486 13.648C23.4393 13.648 23.1753 13.7573 22.9566 13.976C22.738 14.1893 22.594 14.5093 22.5246 14.936C22.45 15.4053 22.4926 15.752 22.6526 15.976C22.8126 16.2 23.0553 16.312 23.3806 16.312ZM26.0065 18.816L25.8465 18.024C26.1078 17.9707 26.3292 17.9093 26.5105 17.84C26.6918 17.7707 26.8465 17.68 26.9745 17.568C27.1078 17.456 27.2278 17.312 27.3345 17.136L27.6065 16.664L27.5585 17.056L26.4465 12.96H27.4785L28.2385 16.112H28.0065L29.7825 12.96H30.8225L28.3105 17.224C28.1398 17.512 27.9665 17.7493 27.7905 17.936C27.6198 18.128 27.4412 18.28 27.2545 18.392C27.0732 18.5093 26.8785 18.6 26.6705 18.664C26.4678 18.728 26.2465 18.7787 26.0065 18.816Z" fill="#27346A"/>
<path d="M30.4782 18.728L31.2302 13.968C31.2569 13.8027 31.2782 13.6347 31.2942 13.464C31.3102 13.2933 31.3209 13.1253 31.3262 12.96H32.2943L32.2462 13.808H32.1262C32.2596 13.5253 32.4516 13.3013 32.7023 13.136C32.9583 12.9653 33.2649 12.88 33.6223 12.88C33.9956 12.88 34.3076 12.9707 34.5582 13.152C34.8143 13.3333 34.9956 13.5893 35.1023 13.92C35.2089 14.2507 35.2249 14.6427 35.1502 15.096C35.0436 15.7467 34.8009 16.24 34.4223 16.576C34.0489 16.912 33.6009 17.08 33.0782 17.08C32.7422 17.08 32.4569 16.9973 32.2222 16.832C31.9876 16.6667 31.8462 16.4453 31.7982 16.168H31.8862L31.4782 18.728H30.4782ZM32.9262 16.312C33.2409 16.312 33.5049 16.2053 33.7183 15.992C33.9369 15.7733 34.0809 15.448 34.1502 15.016C34.2249 14.5467 34.1822 14.2027 34.0222 13.984C33.8676 13.76 33.6249 13.648 33.2943 13.648C32.9849 13.648 32.7182 13.7573 32.4942 13.976C32.2756 14.1893 32.1316 14.5093 32.0622 14.936C31.9929 15.4053 32.0382 15.752 32.1982 15.976C32.3582 16.2 32.6009 16.312 32.9262 16.312ZM37.3992 17.08C37.0312 17.08 36.7192 16.9893 36.4632 16.808C36.2072 16.6267 36.0259 16.3707 35.9192 16.04C35.8179 15.704 35.8019 15.3093 35.8712 14.856C35.9779 14.2053 36.2179 13.7147 36.5912 13.384C36.9699 13.048 37.4205 12.88 37.9432 12.88C38.2792 12.88 38.5645 12.9627 38.7992 13.128C39.0339 13.288 39.1752 13.5067 39.2232 13.784L39.1432 13.808L39.3672 12.96H40.3272C40.2845 13.1253 40.2419 13.2933 40.1992 13.464C40.1619 13.6347 40.1299 13.8027 40.1032 13.968L39.6232 17H38.6312L38.7672 16.144H38.8952C38.7619 16.432 38.5672 16.6613 38.3112 16.832C38.0605 16.9973 37.7565 17.08 37.3992 17.08ZM37.7272 16.312C38.0365 16.312 38.3005 16.2053 38.5192 15.992C38.7432 15.7733 38.8899 15.448 38.9592 15.016C39.0339 14.5467 38.9885 14.2027 38.8232 13.984C38.6632 13.76 38.4205 13.648 38.0952 13.648C37.7859 13.648 37.5219 13.7573 37.3032 13.976C37.0845 14.1893 36.9405 14.5093 36.8712 14.936C36.7965 15.4053 36.8392 15.752 36.9992 15.976C37.1592 16.2 37.4019 16.312 37.7272 16.312ZM40.7521 17L41.6881 11.112H42.6881L41.7521 17H40.7521Z" fill="#2790C3"/>
<defs>
<clipPath id="clip0_162_1714">
<rect width="7.62914" height="9" fill="white" transform="translate(8 9)"/>
</clipPath>
</defs>
</svg>
