<svg width="50" height="29" viewBox="0 0 50 29" fill="none" xmlns="http://www.w3.org/2000/svg">
<rect width="50" height="29" rx="5" fill="white"/>
<g clip-path="url(#clip0_162_1703)">
<path d="M25.1417 12.8209C25.1206 14.4859 26.6256 15.415 27.7592 15.9674C28.9239 16.5341 29.3151 16.8976 29.3105 17.4045C29.3018 18.1802 28.3815 18.5225 27.5202 18.5358C26.0176 18.5591 25.1439 18.1301 24.4494 17.8057L23.9081 20.3386C24.6049 20.6597 25.8953 20.9397 27.2334 20.952C30.3743 20.952 32.4292 19.4016 32.4403 16.9977C32.4526 13.9468 28.2204 13.7779 28.2493 12.4142C28.2593 12.0007 28.6538 11.5595 29.5184 11.4473C29.9464 11.3906 31.1277 11.3473 32.4671 11.964L32.9928 9.51342C32.2725 9.25115 31.3468 9.00002 30.1942 9.00002C27.2378 9.00002 25.1585 10.5716 25.1417 12.8209ZM38.0441 9.21111C37.4705 9.21111 36.9872 9.54566 36.7715 10.0591L32.2848 20.772H35.4234L36.048 19.0459H39.8834L40.2457 20.772H43.0121L40.598 9.21111H38.0441ZM38.4831 12.3341L39.3889 16.6754H36.9083L38.4831 12.3341ZM21.3363 9.21125L18.8623 20.7719H21.8532L24.326 9.21096H21.3363M16.9118 9.21096L13.7987 17.0799L12.5394 10.3893C12.3917 9.64238 11.8081 9.21111 11.1601 9.21111H6.07128L6 9.54682C7.04472 9.77351 8.23171 10.1392 8.95084 10.5304C9.39094 10.7694 9.51644 10.9783 9.66101 11.5462L12.0461 20.772H15.2068L20.0524 9.21111L16.9118 9.21096Z" fill="url(#paint0_linear_162_1703)"/>
</g>
<defs>
<linearGradient id="paint0_linear_162_1703" x1="1707.59" y1="44.9277" x2="1742.19" y2="-1182.56" gradientUnits="userSpaceOnUse">
<stop stop-color="#222357"/>
<stop offset="1" stop-color="#254AA5"/>
</linearGradient>
<clipPath id="clip0_162_1703">
<rect width="37.0121" height="12" fill="white" transform="translate(6 9)"/>
</clipPath>
</defs>
</svg>
