<svg width="613" height="286" viewBox="0 0 613 286" fill="none" xmlns="http://www.w3.org/2000/svg">
<path d="M514.5 192.494C514.5 192.494 437.5 179.494 401.637 165.884C386.134 160 419.321 127.419 419.321 127.419C419.321 127.419 427.93 102.274 423.741 86.9568C413.088 47.9962 360.84 90.4155 322.063 81.4619C272.859 70.1005 254.2 37.5825 205.158 25.5137C164.046 15.396 99 2.50028 99 2.49325C99 2.48614 54.7006 -8.15958 14 23.4944C5 30.4939 0.5 38.4938 0.5 38.4938" stroke="#01BC1F" stroke-opacity="0.84" stroke-dasharray="11 11"/>
<g opacity="0.82">
<path d="M518.709 192.622C518.077 193.268 517.645 194.083 517.466 194.968C517.286 195.854 517.366 196.772 517.697 197.614L548.117 275.418L548.117 275.434C548.474 276.331 549.098 277.096 549.906 277.625C550.713 278.154 551.664 278.42 552.629 278.388C553.593 278.357 554.525 278.028 555.295 277.447C556.066 276.866 556.639 276.061 556.935 275.142L556.96 275.062L568.118 248.123C568.271 247.598 568.284 247.042 568.155 246.511C568.027 245.98 567.761 245.492 567.384 245.095L526.815 202.495C526.685 202.368 526.582 202.217 526.511 202.05C526.439 201.884 526.402 201.704 526.4 201.523C526.398 201.342 526.432 201.162 526.499 200.993C526.567 200.825 526.667 200.672 526.794 200.542C526.921 200.412 527.072 200.309 527.238 200.238C527.405 200.167 527.584 200.129 527.766 200.127C527.947 200.125 528.127 200.159 528.295 200.226C528.464 200.294 528.617 200.394 528.747 200.521L572.2 240.156C572.604 240.524 573.098 240.779 573.632 240.896C574.166 241.013 574.721 240.989 575.243 240.824L601.948 229.078C601.987 229.066 602.022 229.054 602.059 229.04C603.863 228.395 605.123 226.799 605.188 224.886L605.186 224.691C605.181 223.725 604.886 222.784 604.339 221.989C603.791 221.194 603.018 220.581 602.118 220.232L523.691 191.515C522.843 191.198 521.921 191.134 521.036 191.331C520.152 191.527 519.344 191.976 518.709 192.622Z" fill="#01BC1F" fill-opacity="0.84"/>
</g>
</svg>
