<svg width="22" height="22" viewBox="0 0 22 22" fill="none" xmlns="http://www.w3.org/2000/svg">
<g clip-path="url(#clip0_151_532)">
<path d="M14.4865 3.83088L14.4856 3.83121L16.179 3.6004C16.27 3.58802 16.3615 3.62623 16.4151 3.70186C16.4417 3.73843 16.4578 3.78151 16.4618 3.82651C16.4658 3.87152 16.4575 3.91677 16.4379 3.95745L15.589 5.70455C15.4873 5.91318 15.3069 6.07292 15.0875 6.14869L14.0119 6.5204L12.2433 10.1586C12.3622 10.3355 12.442 10.5357 12.4774 10.7459C12.5128 10.9561 12.503 11.1714 12.4487 11.3774C12.3944 11.5835 12.2968 11.7757 12.1624 11.9411C12.028 12.1065 11.8599 12.2414 11.6693 12.3367C11.4787 12.4321 11.27 12.4857 11.057 12.4941C10.8441 12.5024 10.6318 12.4653 10.4343 12.3852C10.2368 12.305 10.0587 12.1837 9.91172 12.0294C9.76479 11.875 9.65244 11.6911 9.58216 11.4899C9.50714 11.2723 9.48314 11.0405 9.51202 10.8122C9.54089 10.5839 9.62187 10.3653 9.74869 10.1733C9.87551 9.98126 10.0448 9.82098 10.2434 9.70482C10.4421 9.58866 10.6647 9.51972 10.8943 9.50333L12.6635 5.86382L12.2922 4.78918C12.2164 4.56991 12.2305 4.32909 12.3319 4.12051L13.1818 2.37309C13.2016 2.3325 13.2321 2.29806 13.27 2.27342C13.3079 2.24878 13.3517 2.23487 13.3969 2.23316C13.4895 2.22866 13.576 2.27704 13.6224 2.35623L14.4865 3.83088Z" fill="#01BC1F" fill-opacity="0.84"/>
<path d="M5.32901 12.9597C5.61021 13.7703 6.06199 14.5111 6.65385 15.1323C7.24571 15.7534 7.9639 16.2404 8.75997 16.5603C9.55604 16.8803 10.4115 17.0258 11.2686 16.9871C12.1256 16.9483 12.9644 16.7262 13.7284 16.3357C14.4923 15.9452 15.1637 15.3954 15.6971 14.7234C16.2305 14.0514 16.6135 13.2729 16.8205 12.4402C17.0274 11.6076 17.0533 10.7403 16.8965 9.89674C16.7398 9.05322 16.4039 8.25314 15.9116 7.55047C15.8488 7.47019 15.8031 7.37797 15.7771 7.27944C15.7511 7.18091 15.7454 7.07812 15.7604 6.97732C15.7754 6.87653 15.8108 6.77985 15.8644 6.69315C15.9179 6.60646 15.9886 6.53158 16.072 6.47306C16.1554 6.41455 16.2499 6.37362 16.3496 6.35278C16.4494 6.33193 16.5523 6.33161 16.6522 6.35182C16.7521 6.37203 16.8468 6.41236 16.9306 6.47035C17.0144 6.52833 17.0855 6.60277 17.1396 6.68912C18.0929 8.04991 18.5675 9.68866 18.4889 11.3483C18.4103 13.0079 17.783 14.5945 16.7054 15.8591C15.6278 17.1237 14.1609 17.9948 12.5348 18.3358C10.9086 18.6767 9.21534 18.4682 7.72051 17.743C6.22628 17.0155 5.01596 15.8123 4.27956 14.3225C3.54317 12.8326 3.32241 11.1404 3.65194 9.51146C3.98147 7.88255 4.84263 6.40919 6.10022 5.32271C7.35781 4.23623 8.94061 3.59816 10.6001 3.50867C10.7981 3.4991 10.9918 3.56827 11.1389 3.70109C11.286 3.8339 11.3746 4.01955 11.3853 4.21747C11.3959 4.41539 11.3278 4.60948 11.1958 4.75732C11.0638 4.90516 10.8786 4.99474 10.6808 5.00648C9.75263 5.05602 8.84868 5.32048 8.04019 5.77901C7.2317 6.23754 6.54077 6.8776 6.02187 7.64873C5.50297 8.41987 5.17029 9.301 5.05005 10.2227C4.92982 11.1443 5.02531 12.0813 5.32901 12.9597Z" fill="#01BC1F" fill-opacity="0.84"/>
<path d="M8.1643 11.9798C8.34288 12.4964 8.65912 12.9544 9.07891 13.3045C9.49869 13.6546 10.0061 13.8834 10.5463 13.9663C11.0866 14.0491 11.6393 13.9829 12.1447 13.7748C12.6501 13.5667 13.0891 13.2245 13.4143 12.7852C13.7392 12.3452 13.9376 11.8247 13.9881 11.2801C14.0386 10.7355 13.9392 10.1874 13.7007 9.69515C13.6411 9.57629 13.6143 9.4437 13.623 9.31104C13.6317 9.17837 13.6757 9.05042 13.7502 8.94036C13.8248 8.8303 13.9274 8.74212 14.0474 8.68488C14.1674 8.62764 14.3005 8.60342 14.433 8.61472C14.5652 8.62536 14.6922 8.67087 14.8011 8.74662C14.91 8.82237 14.9969 8.92565 15.0528 9.04591C15.4587 9.88762 15.5924 10.8348 15.4355 11.756C15.2786 12.6771 14.8388 13.5266 14.1772 14.1865C13.5156 14.8464 12.665 15.2839 11.7434 15.4384C10.8218 15.5929 9.87498 15.4567 9.03434 15.0486C8.1937 14.6406 7.50094 13.9809 7.05221 13.1613C6.60348 12.3417 6.42104 11.4026 6.53021 10.4746C6.63938 9.54656 7.03474 8.67553 7.66143 7.98239C8.28812 7.28925 9.11504 6.80839 10.0274 6.60656C10.1244 6.58281 10.2251 6.57866 10.3237 6.59434C10.4223 6.61002 10.5167 6.64522 10.6015 6.69789C10.6863 6.75055 10.7598 6.81961 10.8175 6.90102C10.8753 6.98243 10.9162 7.07455 10.9379 7.17199C10.9596 7.26942 10.9616 7.37021 10.9439 7.46844C10.9261 7.56667 10.8889 7.66037 10.8345 7.74404C10.7801 7.82771 10.7095 7.89967 10.6269 7.95571C10.5443 8.01174 10.4513 8.05072 10.3534 8.07036C9.94019 8.16153 9.55092 8.33909 9.21119 8.59138C8.87145 8.84366 8.58893 9.16497 8.38218 9.53419C8.17543 9.90341 8.04913 10.3122 8.01158 10.7337C7.97403 11.1552 8.02607 11.5799 8.1643 11.9798Z" fill="#01BC1F" fill-opacity="0.84"/>
</g>
<defs>
<clipPath id="clip0_151_532">
<rect width="16" height="16" fill="white" transform="translate(0.825684 6.05176) rotate(-19.0643)"/>
</clipPath>
</defs>
</svg>
