<svg width="24" height="24" viewBox="0 0 24 24" fill="none" xmlns="http://www.w3.org/2000/svg">
<g clip-path="url(#clip0_151_172)">
<path d="M2.99987 9.42C2.99987 9.78 3.18987 10.11 3.48987 10.31L10.9999 15V20.5C10.9999 21.33 11.6699 22 12.4999 22C13.3299 22 13.9999 21.33 13.9999 20.5V15L21.5099 10.31C21.7239 10.1736 21.8813 9.96426 21.9529 9.72075C22.0246 9.47724 22.0055 9.21602 21.8994 8.98545C21.7933 8.75488 21.6072 8.57056 21.3756 8.4666C21.1441 8.36265 20.8827 8.34609 20.6399 8.42L13.9999 10.5V5L15.7999 3.65C15.8632 3.60456 15.9145 3.5444 15.9493 3.47471C15.9841 3.40502 16.0015 3.3279 15.9999 3.25V2.66C15.9999 2.33 15.6799 2.09 15.3599 2.18L12.4999 3L9.63987 2.18C9.31987 2.09 8.99987 2.33 8.99987 2.66V3.25C8.99824 3.3279 9.01559 3.40502 9.05044 3.47471C9.08528 3.5444 9.13657 3.60456 9.19987 3.65L10.9999 5V10.5L4.35987 8.42C3.67987 8.21 2.99987 8.72 2.99987 9.42Z" fill="#01BC1F" fill-opacity="0.84"/>
</g>
<defs>
<clipPath id="clip0_151_172">
<rect width="24" height="24" fill="white" transform="matrix(-1 0 0 -1 24 24)"/>
</clipPath>
</defs>
</svg>
