<svg width="1280" height="207" viewBox="0 0 1280 207" fill="none" xmlns="http://www.w3.org/2000/svg">
<path fill-rule="evenodd" clip-rule="evenodd" d="M1280 9.36347H1277L1278 6.80981L1273.5 5.95859V2.5537V4.57764e-05H1268.99H1265.99L1264.99 2.5537L1261.49 5.10737L1259.48 8.08666L1251.48 11.9171L1245.97 13.194L1244.47 11.9171L1245.97 9.36347L1248.48 5.95859V2.5537L1245.97 4.57764e-05L1244.47 0.851273L1241.97 5.10737L1240.47 9.36347L1236.47 11.9171L1235.47 15.322V17.4501L1230.96 20.855L1227.96 22.5574H1221.95L1220.45 18.7269L1217.45 15.322C1217.45 14.6127 1217.75 13.194 1218.95 13.194C1220.15 13.194 1225.46 11.2078 1227.96 10.2147L1232.96 6.80981H1227.96L1217.45 9.36347L1213.45 11.9171H1210.95L1203.94 13.194L1202.44 15.322H1198.94L1194.93 11.9171L1186.43 10.2147H1180.92H1162.41V5.95859L1150.9 5.10737V2.5537L1148.4 6.80981L1143.39 9.36347L1137.89 10.2147H1135.89V5.10737L1134.39 2.5537L1128.38 3.83054L1124.88 5.10737L1118.37 2.5537H1113.87H1108.87V0.851273H1102.36V5.10737L1099.36 6.80981L1098.36 10.2147L1088.35 13.194L1083.35 17.4501V20.855L1080.84 23.8342L1079.84 28.0904L1083.35 34.4745L1063.33 43.8379H1055.32L1043.32 48.094L1038.81 45.5404L1026.8 49.7965L1024.8 51.9245L1016.79 52.7758L1015.29 55.755L1009.29 59.1599H1003.28V55.755L1007.29 49.7965L1015.29 46.8172L1020.8 42.5611L1030.81 39.1562C1032.97 39.0143 1036.81 38.305 1034.81 36.6026C1032.81 34.9001 1031.31 33.3395 1030.81 32.772H1026.8L1029.3 31.0696L1034.81 29.3672V28.0904L1030.81 26.8135L1026.8 28.0904L1024.8 26.8135V24.6855H1020.8L1015.29 28.0904L1005.79 31.0696L1001.78 34.4745L996.279 37.8794L992.275 40.8587L990.274 43.8379L984.77 45.5404H979.766V50.6477L976.763 55.755L973.261 57.4575H964.254L953.245 59.1599H950.243L945.239 60.4367L942.236 57.4575L932.729 55.755H928.726L926.724 54.0526L921.72 55.755V56.6062L917.717 57.4575V55.755H915.215L913.714 57.4575H909.211V55.755L904.207 56.6062L899.703 61.288L897.702 64.2672L893.698 65.1185L894.699 62.9904L895.7 61.288H891.196L888.695 59.1599H885.192L882.69 62.9904H878.687L873.683 64.2672L869.179 66.8209L867.678 68.0977L862.674 65.1185H856.169L849.164 65.9697L842.158 69.8002H834.652L832.651 68.0977L828.147 69.8002H826.146V66.8209H817.139L800.125 65.9697L797.123 65.1185L796.122 61.288L799.125 60.4367V57.4575L796.122 56.6062L793.62 53.2014H789.617L786.114 55.755V61.288L783.112 62.9904L784.613 65.1185L780.11 65.9697L776.607 68.0977H773.605L769.101 65.1185L765.598 64.2672V61.288H769.101L767.6 59.1599H763.597L762.596 62.9904L761.595 64.2672H758.092L755.591 62.9904H753.089V61.288V59.1599L758.092 57.4575L760.594 55.755H757.092L753.089 54.0526L751.087 55.755H747.584L743.081 56.6062L739.078 55.755L734.074 54.9038L731.572 53.2014H727.569V54.9038L724.566 54.0526V52.3502L714.058 53.2014H711.056V52.3502L708.554 51.4989V48.5197L707.553 46.3916V44.6892H711.056H712.557V42.5611H711.056L710.055 40.8587H705.051L702.549 40.0074H695.043L693.042 38.305H688.038V39.5818L692.541 40.0074V40.8587L690.54 41.2843L690.039 42.1355H686.036V40.4331H684.035V38.7306L678.53 39.1562L678.03 40.0074H676.028V41.2843L674.027 40.8587V42.1355H670.524H668.022H666.021L665.52 42.9867L665.02 44.2636H661.517V43.4123L659.515 42.9867V42.1355L642.002 42.5611L616.482 21.7062L610.477 24.2598L616.482 28.516L603.472 30.644L597.967 33.1977L593.464 26.8135L588.96 21.7062V16.1732L576.451 18.7269L567.944 16.1732L549.93 24.2598L547.428 18.7269L540.422 20.4294L537.42 21.7062L529.914 17.8757L528.413 15.322L531.916 14.4708L527.913 13.6196H522.909L528.413 12.7684H520.907L520.407 11.4916L515.403 11.9171L514.402 12.7684L511.9 13.194L512.401 14.4708L509.899 14.8964C509.899 14.1871 509.799 12.7684 509.398 12.7684C508.998 12.7684 507.563 13.0521 506.896 13.194L493.886 21.7062H486.38L480.375 18.7269L473.87 15.322L463.362 17.8757L458.358 23.4086L456.357 24.2598L453.354 25.5367L443.847 23.4086V20.4294L435.841 17.0245L429.836 14.8964L425.833 17.8757L421.329 19.5781L430.837 24.2598L432.338 33.1977L429.836 34.4745L423.331 33.1977L417.326 24.2598H411.822L405.317 25.5367L401.314 26.3879L397.811 23.4086H389.805L387.303 20.4294L379.797 21.7062H364.285L362.784 15.322L354.777 17.0245L353.276 13.6196L350.774 17.8757L337.264 20.4294V14.4708L325.755 13.6196H313.745L302.236 9.78909V18.7269L292.729 23.4086L282.221 26.3879V34.4745H278.218V33.1977L268.71 34.4745L261.705 29.7928L256.701 23.4086H245.692L241.689 26.3879L245.692 29.7928V34.4745V37.8794L241.689 41.7099L236.185 44.6892L230.18 41.7099L222.674 44.6892L213.667 50.6477V44.6892L204.16 41.7099H188.648H167.631H160.626L153.12 50.6477L167.631 54.0526H174.637L181.142 61.288L174.637 68.949H160.626L152.619 71.5026H147.615L141.11 68.949L134.105 66.3953H125.098L121.095 68.949L119.093 66.3953L114.59 68.949L105.583 66.3953L99.578 71.5026V75.3331H94.0737L97.5764 71.5026L87.5686 68.949L84.0659 73.6307H79.062L70.0549 77.0356L54.0425 68.949H44.535L39.0306 64.6929H22.5178L7.5061 56.1806L5.00415 50.6477L0.000244141 47.6684V92.0687L0 92.0686V197.637H3.00235L2.00156 200.19L6.50508 201.041V204.446V207H11.0086H14.0109L15.0117 204.446L18.5145 201.893L20.516 198.913L28.5223 195.083L34.0266 193.806L35.5278 195.083L34.0266 197.637L31.5246 201.041V204.446L34.0266 207L35.5278 206.149L38.0297 201.893L39.5309 197.637L43.534 195.083L44.5348 191.678V189.55L49.0383 186.145L52.0407 184.443H58.0453L59.5465 188.273L62.5489 191.678C62.5489 192.387 62.2486 193.806 61.0477 193.806C59.8468 193.806 54.5426 195.792 52.0407 196.785L47.0368 200.19H52.0407L62.5489 197.637L66.552 195.083H69.0539L76.0594 193.806L77.5606 191.678H81.0633L85.0665 195.083L93.5731 196.785H99.0774H117.592V201.041L129.101 201.893V204.446L131.603 200.19L136.607 197.637L142.111 196.785H144.113V201.893L145.614 204.446L151.618 203.169L155.121 201.893L161.626 204.446H166.13H171.134V206.149H177.639V201.893L180.641 200.19L181.642 196.785L191.65 193.806L196.654 189.55V186.145L199.156 183.166L200.156 178.91L196.654 172.526L216.669 163.162H224.676L236.685 158.906L241.188 161.46L253.198 157.204L255.199 155.075L263.206 154.224L264.707 151.245L270.712 147.84H276.716V151.245L272.713 157.204L264.707 160.183L259.203 164.439L249.195 167.844C247.026 167.986 243.19 168.695 245.192 170.397C247.193 172.1 248.694 173.66 249.195 174.228H253.198L250.696 175.93L245.192 177.633V178.91L249.195 180.187L253.198 178.91L255.199 180.187V182.315H259.203L264.707 178.91L274.214 175.93L278.217 172.526L283.722 169.121L287.725 166.141L289.726 163.162L295.231 161.46H300.235V156.352L303.237 151.245L306.74 149.543H315.747L326.755 147.84H329.758L334.762 146.563L337.764 149.543L347.271 151.245H351.274L353.276 152.947L358.28 151.245V150.394L362.283 149.543V151.245H364.785L366.286 149.543H370.79V151.245L375.794 150.394L380.297 145.712L382.299 142.733L386.302 141.882L385.301 144.01L384.3 145.712H388.804L391.306 147.84H394.808L397.31 144.01H401.314L406.317 142.733L410.821 140.179L412.322 138.902L417.326 141.882H423.831L430.837 141.03L437.842 137.2H445.348L447.35 138.902L451.853 137.2H453.855V140.179H462.862L479.875 141.03L482.877 141.882L483.878 145.712L480.876 146.563V149.543L483.878 150.394L486.38 153.799H490.383L493.886 151.245V145.712L496.888 144.01L495.387 141.882L499.891 141.03L503.393 138.902H506.396L510.899 141.882L514.402 142.733V145.712H510.899L512.4 147.84H516.403L517.404 144.01L518.405 142.733H521.908L524.41 144.01H526.912V145.712V147.84L521.908 149.543L519.406 151.245H522.909L526.912 152.947L528.913 151.245H532.416L536.919 150.394L540.923 151.245L545.927 152.096L548.428 153.799H552.432V152.096L555.434 152.947V154.65L565.942 153.799H568.945V154.65L571.446 155.501V158.48L572.447 160.608V162.311H568.945H567.443V164.439H568.945L569.945 166.141H574.949L577.451 166.993H584.957L586.959 168.695H591.962V167.418L587.459 166.993V166.141L589.461 165.716L589.961 164.865H593.964V166.567H595.966V168.269L601.47 167.844L601.97 166.993H603.972V165.716L605.973 166.141V164.865H609.476H611.978H613.98L614.48 164.013L614.98 162.736H618.483V163.588L620.485 164.013V164.865L637.998 164.439L663.518 185.294L669.523 182.74L663.518 178.484L676.529 176.356L682.033 173.802L686.536 180.187L691.04 185.294V190.827L703.55 188.273L712.056 190.827L730.07 182.74L732.572 188.273L739.578 186.571L742.58 185.294L750.086 189.124L751.587 191.678L748.084 192.529L752.088 193.38H757.091L751.587 194.232H759.093L759.593 195.508L764.597 195.083L765.598 194.232L768.1 193.806L767.6 192.529L770.102 192.104C770.102 192.813 770.202 194.232 770.602 194.232C771.002 194.232 772.437 193.948 773.104 193.806L786.114 185.294H793.62L799.625 188.273L806.13 191.678L816.638 189.124L821.642 183.591L823.643 182.74L826.646 181.463L836.153 183.591V186.571L844.16 189.976L850.164 192.104L854.167 189.124L858.671 187.422L849.163 182.74L847.662 173.802L850.164 172.526L856.669 173.802L862.674 182.74H868.178L874.683 181.463L878.687 180.612L882.189 183.591H890.195L892.697 186.571L900.203 185.294H915.715L917.217 191.678L925.223 189.976L926.724 193.38L929.226 189.124L942.737 186.571V192.529L954.246 193.38H966.255L977.764 197.211V188.273L987.271 183.591L997.78 180.612V172.526H1001.78V173.802L1011.29 172.526L1018.3 177.207L1023.3 183.591H1034.31L1038.31 180.612L1034.31 177.207V172.526V169.121L1038.31 165.29L1043.82 162.311L1049.82 165.29L1057.33 162.311L1066.33 156.352V162.311L1075.84 165.29H1091.35H1112.37H1119.37L1126.88 156.352L1112.37 152.947H1105.36L1098.86 145.712L1105.36 138.051H1119.37L1127.38 135.497H1132.38L1138.89 138.051L1145.9 140.605H1154.9L1158.91 138.051L1160.91 140.605L1165.41 138.051L1174.42 140.605L1180.42 135.497V131.667H1185.93L1182.42 135.497L1192.43 138.051L1195.93 133.369H1200.94L1209.95 129.964L1225.96 138.051H1235.47L1240.97 142.307H1257.48L1272.49 150.819L1275 156.352L1280 159.332L1280 114.931V9.36347Z" fill="url(#paint0_linear_151_536)" fill-opacity="0.2"/>
<defs>
<linearGradient id="paint0_linear_151_536" x1="640" y1="0" x2="640" y2="207" gradientUnits="userSpaceOnUse">
<stop stop-color="#1A6B8A" stop-opacity="0.1"/>
<stop offset="0.869792" stop-color="#6FF982" stop-opacity="0.5"/>
</linearGradient>
</defs>
</svg>
