<svg width="1280" height="944" viewBox="0 0 1280 944" fill="none" xmlns="http://www.w3.org/2000/svg">
<path fill-rule="evenodd" clip-rule="evenodd" d="M1280 0H0V698.5V711V930.713H3.00704L2.00469 934.337L6.51525 935.545V940.376V944H11.0258H14.0328L15.0352 940.376L18.5434 936.753L20.5481 932.525L28.5668 927.09L34.0798 925.278L35.5833 927.09L34.0798 930.713L31.5739 935.545V940.376L34.0798 944L35.5833 942.792L38.0891 936.753L39.5927 930.713L43.602 927.09L44.6044 922.258V919.238L49.1149 914.407L52.122 911.991H58.136L59.6396 917.427L62.6466 922.258C62.6466 923.265 62.3459 925.278 61.1431 925.278C59.9403 925.278 54.6278 928.096 52.122 929.505L47.1102 934.337H52.122L62.6466 930.713L66.656 927.09H69.1618L76.1783 925.278L77.6818 922.258H81.19L85.1994 927.09L93.7193 929.505H99.2322H117.776V935.545L129.303 936.753V940.376L131.808 934.337L136.82 930.713L142.333 929.505H144.338V936.753L145.841 940.376L151.855 938.565L155.364 936.753L161.879 940.376H166.389H171.401V942.792H177.916V936.753L180.923 934.337L181.926 929.505L191.949 925.278L196.961 919.238V914.407L199.467 910.179L200.469 904.14L196.961 895.081L217.008 881.794H225.027L237.055 875.755L241.565 879.378L253.593 873.339L255.598 870.319L263.617 869.111L265.12 864.884L271.134 860.052H277.149V864.884L273.139 873.339L265.12 877.567L259.608 883.606L249.584 888.438C247.412 888.639 243.57 889.645 245.575 892.061C247.579 894.477 249.083 896.691 249.584 897.497H253.593L251.088 899.912L245.575 902.328V904.14L249.584 905.952L253.593 904.14L255.598 905.952V908.971H259.608L265.12 904.14L274.643 899.912L278.652 895.081L284.165 890.249L288.174 886.022L290.179 881.794L295.692 879.378H300.704V872.131L303.711 864.884L307.219 862.468H316.24L327.266 860.052H330.273L335.285 858.24L338.292 862.468L347.814 864.884H351.823L353.828 867.3L358.84 864.884V863.676L362.849 862.468V864.884H365.355L366.858 862.468H371.369V864.884L376.381 863.676L380.891 857.033L382.896 852.805L386.905 851.597L385.903 854.617L384.901 857.033H389.411L391.917 860.052H395.425L397.931 854.617H401.941L406.952 852.805L411.463 849.181L412.966 847.37L417.978 851.597H424.493L431.51 850.389L438.526 844.954H446.044L448.048 847.37L452.559 844.954H454.564V849.181H463.585L480.625 850.389L483.632 851.597L484.634 857.033L481.627 858.24V862.468L484.634 863.676L487.14 868.507H491.149L494.658 864.884V857.033L497.665 854.617L496.161 851.597L500.672 850.389L504.18 847.37H507.187L511.697 851.597L515.206 852.805V857.033H511.697L513.201 860.052H517.21L518.213 854.617L519.215 852.805H522.723L525.229 854.617H527.735V857.033V860.052L522.723 862.468L520.217 864.884H523.726L527.735 867.3L529.74 864.884H533.248L537.758 863.676L541.768 864.884L546.78 866.092L549.285 868.507H553.295V866.092L556.302 867.3V869.715L566.826 868.507H569.833V869.715L572.339 870.923V875.151L573.342 878.171V880.586H569.833H568.33V883.606H569.833L570.836 886.022H575.848L578.353 887.23H585.871L587.876 889.645H592.887V887.834L588.377 887.23V886.022L590.382 885.418L590.883 884.21H594.892V886.626H596.897V889.041L602.41 888.438L602.911 887.23H604.916V885.418L606.92 886.022V884.21H610.428H612.934H614.939L615.44 883.002L615.941 881.19H619.45V882.398L621.454 883.002V884.21L638.995 883.606L664.555 913.199L670.569 909.575L664.555 903.536L677.586 900.516L683.099 896.893L687.609 905.952L692.12 913.199V921.05L704.649 917.427L713.169 921.05L731.211 909.575L733.717 917.427L740.733 915.011L743.74 913.199L751.258 918.635L752.762 922.258L749.253 923.466L753.263 924.674H758.274L752.762 925.882H760.279L760.78 927.694L765.792 927.09L766.794 925.882L769.3 925.278L768.799 923.466L771.305 922.862C771.305 923.869 771.405 925.882 771.806 925.882C772.207 925.882 773.644 925.479 774.312 925.278L787.342 913.199H794.86L800.874 917.427L807.389 922.258L817.914 918.635L822.926 910.783L824.93 909.575L827.938 907.764L837.46 910.783V915.011L845.479 919.842L851.493 922.862L855.502 918.635L860.013 916.219L850.49 909.575L848.987 896.893L851.493 895.081L858.008 896.893L864.022 909.575H869.535L876.05 907.764L880.059 906.556L883.568 910.783H891.586L894.092 915.011L901.61 913.199H917.146L918.65 922.258L926.668 919.842L928.172 924.674L930.678 918.635L944.21 915.011V923.466L955.737 924.674H967.765L979.292 930.109V917.427L988.814 910.783L999.339 906.556V895.081H1003.35V896.893L1012.87 895.081L1019.89 901.724L1024.9 910.783H1035.92L1039.93 906.556L1035.92 901.724V895.081V890.249L1039.93 884.814L1045.45 880.586L1051.46 884.814L1058.98 880.586L1068 872.131V880.586L1077.52 884.814H1093.06H1114.11H1121.12L1128.64 872.131L1114.11 867.3H1107.09L1100.58 857.033L1107.09 846.162H1121.12L1129.14 842.538H1134.15L1140.67 846.162L1147.69 849.785H1156.71L1160.72 846.162L1162.72 849.785L1167.23 846.162L1176.25 849.785L1182.27 842.538V837.103H1187.78L1184.27 842.538L1194.29 846.162L1197.8 839.518H1202.81L1211.84 834.687L1227.87 846.162H1237.4L1242.91 852.201H1259.45L1274.48 864.28L1276.99 872.131L1282 876.359V796.035V701H1280V0Z" fill="#E4FFEA"/>
</svg>
